<svg width="109" height="27" viewBox="0 0 109 27" fill="none" xmlns="http://www.w3.org/2000/svg">
<path d="M0 26.5934V0.406626H14.2349C16.8621 0.406626 18.8593 1.03012 20.2265 2.27711C21.5937 3.5241 22.2773 5.31325 22.2773 7.64458C22.2773 9 22.0226 10.1386 21.5132 11.0602C21.0307 11.9819 20.3873 12.7139 19.5831 13.256C20.6822 13.6898 21.5535 14.3268 22.1968 15.1672C22.867 15.9804 23.2021 17.2003 23.2021 18.8268C23.2021 21.2937 22.4515 23.2048 20.9503 24.5602C19.449 25.9157 17.3178 26.5934 14.5566 26.5934H0ZM7.27831 10.8569H12.1841C14.0339 10.8569 14.9587 10.0166 14.9587 8.33584C14.9587 7.49548 14.7309 6.85843 14.2751 6.4247C13.8462 5.99096 13.0822 5.7741 11.9831 5.7741H7.27831V10.8569ZM7.27831 21.2666H12.5058C13.5245 21.2666 14.2751 21.0497 14.7577 20.616C15.2402 20.1822 15.4815 19.4639 15.4815 18.4608C15.4815 17.6205 15.2402 16.9834 14.7577 16.5497C14.2751 16.116 13.4709 15.8991 12.345 15.8991H7.27831V21.2666Z" fill="#212121"/>
<path d="M26.0355 26.5934V0.406626H33.5953V26.5934H26.0355Z" fill="#212121"/>
<path d="M44.9667 26.5934V16.997L35.6376 0.406626H43.5191L48.7466 10.2877L53.9741 0.406626H61.8556L52.5265 16.997V26.5934H44.9667Z" fill="#212121"/>
<path d="M70.53 27C68.7875 27 67.1388 26.8645 65.584 26.5934C64.0291 26.2952 62.7021 25.8886 61.603 25.3735V19.0708C62.8094 19.6401 64.1497 20.1009 65.6242 20.4533C67.0986 20.8057 68.4792 20.9819 69.766 20.9819C71.1064 20.9819 72.1117 20.8735 72.7819 20.6566C73.4789 20.4126 73.8274 19.884 73.8274 19.0708C73.8274 18.5015 73.6263 18.0542 73.2242 17.7289C72.8489 17.4036 72.2457 17.1054 71.4147 16.8343C70.6104 16.5633 69.5515 16.2244 68.2379 15.8178C66.4954 15.2485 65.1148 14.625 64.0961 13.9473C63.0774 13.2696 62.3402 12.4428 61.8845 11.4669C61.4556 10.491 61.2411 9.29819 61.2411 7.88856C61.2411 5.31325 62.1392 3.36145 63.9353 2.03313C65.7582 0.677711 68.4524 0 72.0178 0C73.4386 0 74.8997 0.121988 76.4009 0.365964C77.9289 0.60994 79.1621 0.881025 80.1004 1.17922V7.52259C78.8404 7.00753 77.6341 6.64157 76.4813 6.4247C75.3286 6.20783 74.2429 6.0994 73.2242 6.0994C72.0446 6.0994 71.0394 6.19428 70.2083 6.38404C69.3773 6.5738 68.9617 7.06175 68.9617 7.84789C68.9617 8.5256 69.3102 9.02711 70.0072 9.35241C70.7311 9.6506 72.0044 10.0437 73.8274 10.5316C75.9452 11.1009 77.5536 11.7922 78.6528 12.6054C79.7787 13.4187 80.5427 14.3675 80.9448 15.4518C81.3469 16.509 81.548 17.7154 81.548 19.0708C81.548 21.4563 80.6365 23.381 78.8136 24.8449C76.9907 26.2816 74.2295 27 70.53 27Z" fill="#212121"/>
<path d="M84.3503 26.5934V0.406626H91.91V9.63705L99.7513 0.406626H108.357L99.2286 11.1416L109 26.5934H100.958L94.564 16.0211L91.91 19.0301V26.5934H84.3503Z" fill="#212121"/>
</svg>
