<svg width="21" height="22" viewBox="0 0 21 22" fill="none" xmlns="http://www.w3.org/2000/svg">
<path d="M6.12501 0.583313H14.875C18.2083 0.583313 20.9167 3.29165 20.9167 6.62498V15.375C20.9167 16.9773 20.2801 18.5141 19.1471 19.6471C18.0141 20.7801 16.4774 21.4166 14.875 21.4166H6.12501C2.79168 21.4166 0.0833435 18.7083 0.0833435 15.375V6.62498C0.0833435 5.02263 0.719875 3.48591 1.85291 2.35288C2.98594 1.21984 4.52266 0.583313 6.12501 0.583313ZM5.91668 2.66665C4.92212 2.66665 3.96829 3.06173 3.26503 3.765C2.56177 4.46826 2.16668 5.42208 2.16668 6.41665V15.5833C2.16668 17.6562 3.84376 19.3333 5.91668 19.3333H15.0833C16.0779 19.3333 17.0317 18.9382 17.735 18.235C18.4383 17.5317 18.8333 16.5779 18.8333 15.5833V6.41665C18.8333 4.34373 17.1563 2.66665 15.0833 2.66665H5.91668ZM15.9688 4.22915C16.3141 4.22915 16.6453 4.36633 16.8895 4.61052C17.1337 4.85471 17.2708 5.1859 17.2708 5.53123C17.2708 5.87656 17.1337 6.20775 16.8895 6.45194C16.6453 6.69613 16.3141 6.83331 15.9688 6.83331C15.6234 6.83331 15.2922 6.69613 15.048 6.45194C14.8039 6.20775 14.6667 5.87656 14.6667 5.53123C14.6667 5.1859 14.8039 4.85471 15.048 4.61052C15.2922 4.36633 15.6234 4.22915 15.9688 4.22915ZM10.5 5.79165C11.8813 5.79165 13.2061 6.34038 14.1829 7.31713C15.1596 8.29388 15.7083 9.61864 15.7083 11C15.7083 12.3813 15.1596 13.7061 14.1829 14.6828C13.2061 15.6596 11.8813 16.2083 10.5 16.2083C9.11868 16.2083 7.79391 15.6596 6.81716 14.6828C5.84041 13.7061 5.29168 12.3813 5.29168 11C5.29168 9.61864 5.84041 8.29388 6.81716 7.31713C7.79391 6.34038 9.11868 5.79165 10.5 5.79165ZM10.5 7.87498C9.67121 7.87498 8.87635 8.20422 8.2903 8.79027C7.70425 9.37632 7.37501 10.1712 7.37501 11C7.37501 11.8288 7.70425 12.6236 8.2903 13.2097C8.87635 13.7957 9.67121 14.125 10.5 14.125C11.3288 14.125 12.1237 13.7957 12.7097 13.2097C13.2958 12.6236 13.625 11.8288 13.625 11C13.625 10.1712 13.2958 9.37632 12.7097 8.79027C12.1237 8.20422 11.3288 7.87498 10.5 7.87498Z" fill="black"/>
</svg>
