<svg width="58" height="50" viewBox="0 0 58 50" fill="none" xmlns="http://www.w3.org/2000/svg">
<g clip-path="url(#clip0_1_635)">
<path d="M57.1384 24.5295C57.1384 37.6165 47.6429 48.2257 29.1361 48.2257C9.52858 48.2257 1.13373 37.6165 1.13373 24.5295C1.13373 11.4425 12.3573 0.833374 29.1361 0.833374C44.6013 0.833374 57.1384 11.4425 57.1384 24.5295Z" fill="white"/>
<path d="M50.2909 6.66667C55.0524 10.7483 58 16.78 58 25.0113C58 33.2426 55.0751 39.2517 50.2909 43.356C44.9398 47.9365 37.3213 50.0227 29 50.0227C20.656 50.0227 13.0375 47.9365 7.70915 43.356C2.94762 39.2744 0 33.2426 0 25.0113C0 16.78 2.92494 10.7483 7.70915 6.66667C13.0375 2.08617 20.656 0 29 0C37.344 0 44.9625 2.08617 50.2909 6.66667ZM55.8913 25.0113C55.8913 17.4603 53.2385 11.9728 48.9304 8.27664C43.9875 4.03628 36.8679 2.10884 29 2.10884C21.1321 2.10884 14.0125 4.03628 9.06959 8.25397C4.76153 11.9728 2.10868 17.4603 2.10868 25.0113C2.10868 32.5624 4.76153 38.0499 9.06959 41.7234C14.0125 45.941 21.1321 47.8685 29 47.8685C36.8679 47.8685 43.9875 45.941 48.9304 41.7234C53.2385 38.0499 55.8913 32.5624 55.8913 25.0113Z" fill="white"/>
<path d="M15.102 16.5892L42.898 34.7439" stroke="#212121" stroke-width="1.3" stroke-linecap="round"/>
<path d="M15.102 34.4105L42.898 16.2559" stroke="#212121" stroke-width="1.3" stroke-linecap="round"/>
</g>
<defs>
<clipPath id="clip0_1_635">
<rect width="58" height="50" fill="white"/>
</clipPath>
</defs>
</svg>
