<svg width="18" height="16" viewBox="0 0 18 16" fill="none" xmlns="http://www.w3.org/2000/svg">
<path d="M16.466 0.141264C16.466 0.141264 18.131 -0.551304 17.9917 1.13052C17.9459 1.82309 17.5297 4.2473 17.2057 6.86901L16.0958 14.6358C16.0958 14.6358 16.0032 15.7737 15.1705 15.9716C14.3382 16.1691 13.0894 15.279 12.8579 15.0811C12.6728 14.9325 9.38913 12.7062 8.23287 11.6182C7.90887 11.3211 7.53859 10.7277 8.27915 10.0352L13.1352 5.08799C13.6902 4.49462 14.2452 3.10948 11.9327 4.7913L5.45705 9.49071C5.45705 9.49071 4.71692 9.98579 3.32965 9.54054L0.322836 8.55083C0.322836 8.55083 -0.787148 7.80889 1.10925 7.06695C5.73476 4.74193 11.424 2.36754 16.4652 0.141264H16.466Z" fill="black"/>
</svg>
