<svg width="24" height="18" viewBox="0 0 24 18" fill="none" xmlns="http://www.w3.org/2000/svg">
<path d="M23.9663 1.97735C24.1579 2.61655 23.5331 4.08471 22.092 6.38184C21.892 6.70144 21.6213 7.12591 21.2798 7.65525C20.9465 8.16462 20.7175 8.52417 20.5925 8.7339C20.4675 8.94364 20.3405 9.19083 20.2114 9.47548C20.0823 9.76012 20.0323 9.96986 20.0614 10.1047C20.0906 10.2395 20.1447 10.4118 20.2239 10.6215C20.303 10.8313 20.4384 11.046 20.63 11.2657C20.8216 11.4855 21.059 11.7501 21.3422 12.0597C21.3756 12.0797 21.3964 12.0997 21.4047 12.1197C22.5793 13.428 23.3748 14.5317 23.7913 15.4305C23.8163 15.4805 23.8434 15.5429 23.8726 15.6178C23.9017 15.6927 23.9309 15.825 23.96 16.0148C23.9892 16.2046 23.9871 16.3744 23.9538 16.5242C23.9205 16.674 23.8163 16.8113 23.6414 16.9362C23.4665 17.061 23.2207 17.1234 22.9042 17.1234L19.7053 17.1833C19.5054 17.2333 19.2722 17.2083 19.0056 17.1084C18.739 17.0086 18.5224 16.8987 18.3558 16.7788L18.1059 16.5991C17.856 16.3893 17.5644 16.0697 17.2312 15.6403C16.898 15.2108 16.6127 14.8238 16.3753 14.4792C16.1379 14.1347 15.8838 13.845 15.6131 13.6103C15.3423 13.3756 15.107 13.2982 14.9071 13.3781C14.8821 13.3881 14.8488 13.4056 14.8071 13.4305C14.7655 13.4555 14.6946 13.5279 14.5947 13.6478C14.4947 13.7676 14.4052 13.9149 14.326 14.0897C14.2469 14.2645 14.1761 14.5242 14.1136 14.8687C14.0511 15.2133 14.0241 15.6003 14.0324 16.0298C14.0324 16.1796 14.0178 16.3169 13.9887 16.4418C13.9595 16.5666 13.9283 16.659 13.8949 16.7189L13.845 16.7938C13.695 16.9836 13.4743 17.0935 13.1827 17.1234H11.7457C11.1543 17.1634 10.5462 17.081 9.92139 16.8762C9.29662 16.6715 8.7489 16.4068 8.27824 16.0822C7.80757 15.7576 7.37856 15.428 6.9912 15.0935C6.60385 14.7589 6.3102 14.4717 6.11028 14.232L5.79789 13.8725C5.71459 13.7726 5.60004 13.6228 5.45426 13.423C5.30848 13.2233 5.01068 12.7689 4.56084 12.0597C4.111 11.3506 3.6695 10.5966 3.23632 9.79757C2.80315 8.99857 2.29292 7.94489 1.70563 6.63652C1.11834 5.32816 0.574791 3.96986 0.0749727 2.56162C0.0249909 2.40182 0 2.26699 0 2.15712C0 2.04726 0.0124955 1.96736 0.0374864 1.91742L0.0874682 1.82754C0.212423 1.63777 0.449836 1.54289 0.799709 1.54289L4.22346 1.51293C4.32343 1.5329 4.41922 1.56536 4.51086 1.61031C4.60249 1.65525 4.66913 1.6977 4.71078 1.73765L4.77326 1.78259C4.90655 1.89245 5.00651 2.05225 5.07315 2.26199C5.23976 2.76137 5.43136 3.27822 5.64794 3.81255C5.86453 4.34689 6.0353 4.75388 6.16026 5.03353L6.36018 5.46799C6.60176 6.06724 6.83501 6.58659 7.05993 7.02604C7.28485 7.46549 7.48686 7.80756 7.66596 8.05226C7.84506 8.29695 8.01791 8.48921 8.18452 8.62904C8.35113 8.76886 8.49274 8.83877 8.60937 8.83877C8.72599 8.83877 8.83845 8.8138 8.94674 8.76387C8.9634 8.75388 8.98423 8.72891 9.00922 8.68896C9.03421 8.64901 9.08419 8.53915 9.15917 8.35937C9.23414 8.1796 9.29037 7.94489 9.32785 7.65525C9.36534 7.36561 9.40491 6.96112 9.44656 6.44177C9.48821 5.92242 9.48821 5.2982 9.44656 4.56911C9.4299 4.16961 9.39241 3.80506 9.3341 3.47548C9.27579 3.14589 9.21748 2.91617 9.15917 2.78634L9.08419 2.60656C8.87594 2.26699 8.5219 2.05225 8.02208 1.96237C7.91379 1.94239 7.93461 1.82254 8.08456 1.60282C8.21784 1.41305 8.37612 1.26324 8.55938 1.15338C9.00089 0.893702 9.99636 0.773852 11.5458 0.793827C12.2289 0.803815 12.7912 0.868734 13.2327 0.988584C13.3993 1.03852 13.5388 1.10594 13.6513 1.19083C13.7637 1.27572 13.8491 1.39558 13.9074 1.55038C13.9657 1.70519 14.0095 1.86499 14.0386 2.02978C14.0678 2.19458 14.0824 2.42179 14.0824 2.71143C14.0824 3.00107 14.0782 3.27573 14.0699 3.5354C14.0615 3.79508 14.0511 4.14714 14.0386 4.59158C14.0261 5.03603 14.0199 5.44801 14.0199 5.82754C14.0199 5.9374 14.0157 6.14714 14.0074 6.45675C13.9991 6.76636 13.997 7.00606 14.0012 7.17585C14.0053 7.34564 14.0199 7.54789 14.0449 7.78259C14.0699 8.0173 14.1178 8.21206 14.1886 8.36686C14.2594 8.52167 14.3531 8.64402 14.4697 8.7339C14.5364 8.75388 14.6072 8.77385 14.6822 8.79383C14.7571 8.8138 14.8654 8.75887 15.007 8.62904C15.1487 8.4992 15.3069 8.32691 15.4819 8.11218C15.6568 7.89745 15.8734 7.56287 16.1316 7.10844C16.3899 6.654 16.6731 6.11717 16.9813 5.49795C17.4811 4.45925 17.9268 3.33565 18.3183 2.12716C18.3517 2.02729 18.3933 1.93989 18.4433 1.86499C18.4933 1.79008 18.5391 1.73765 18.5807 1.70769L18.6307 1.66274L18.6932 1.62529L18.8556 1.58034L19.1055 1.57285L22.7042 1.54289C23.0291 1.49295 23.2957 1.50544 23.5039 1.58034C23.7122 1.65525 23.8413 1.73765 23.8913 1.82754L23.9663 1.97735Z" fill="black"/>
</svg>
