<svg width="174" height="42" viewBox="0 0 174 42" fill="none" xmlns="http://www.w3.org/2000/svg">
<path d="M0 41.3675V0.632529H22.7236C26.9175 0.632529 30.1056 1.60241 32.2881 3.54217C34.4706 5.48193 35.5619 8.26506 35.5619 11.8916C35.5619 14 35.1553 15.7711 34.3422 17.2048C33.5719 18.6386 32.5449 19.7771 31.2611 20.6205C33.0156 21.2952 34.4064 22.2861 35.4335 23.5934C36.5033 24.8584 37.0383 26.756 37.0383 29.2861C37.0383 33.1235 35.84 36.0964 33.4436 38.2048C31.0471 40.3133 27.645 41.3675 23.2372 41.3675H0ZM11.6186 16.8886H19.4499C22.4027 16.8886 23.8791 15.5813 23.8791 12.9669C23.8791 11.6596 23.5153 10.6687 22.7878 9.99398C22.1031 9.31928 20.8835 8.98193 19.1289 8.98193H11.6186V16.8886ZM11.6186 33.0813H19.9634C21.5896 33.0813 22.7878 32.744 23.5581 32.0693C24.3284 31.3946 24.7136 30.2771 24.7136 28.7169C24.7136 27.4096 24.3284 26.4187 23.5581 25.744C22.7878 25.0693 21.504 24.7319 19.7067 24.7319H11.6186V33.0813Z" fill="white"/>
<path d="M41.5612 41.3675V0.632529H53.6292V41.3675H41.5612Z" fill="white"/>
<path d="M71.7817 41.3675V26.4398L56.8894 0.632529H69.4708L77.8157 16.003L86.1605 0.632529H98.742L83.8496 26.4398V41.3675H71.7817Z" fill="white"/>
<path d="M112.589 42C109.808 42 107.176 41.7892 104.694 41.3675C102.212 40.9036 100.093 40.2711 98.3388 39.4699V29.6657C100.264 30.5512 102.404 31.2681 104.758 31.8163C107.112 32.3645 109.315 32.6386 111.37 32.6386C113.509 32.6386 115.114 32.4699 116.184 32.1325C117.297 31.753 117.853 30.9307 117.853 29.6657C117.853 28.7801 117.532 28.0843 116.89 27.5783C116.291 27.0723 115.328 26.6084 114.001 26.1867C112.718 25.7651 111.027 25.238 108.93 24.6054C106.149 23.7199 103.945 22.75 102.319 21.6958C100.692 20.6416 99.5156 19.3554 98.7881 17.8373C98.1034 16.3193 97.761 14.4639 97.761 12.2711C97.761 8.26506 99.1946 5.22892 102.062 3.16265C104.972 1.05422 109.273 0 114.964 0C117.232 0 119.565 0.189759 121.961 0.569277C124.4 0.948795 126.369 1.37048 127.867 1.83434V11.7018C125.855 10.9006 123.93 10.3313 122.089 9.99398C120.249 9.65663 118.516 9.48795 116.89 9.48795C115.007 9.48795 113.402 9.63554 112.076 9.93072C110.749 10.2259 110.086 10.9849 110.086 12.2078C110.086 13.262 110.642 14.0422 111.755 14.5482C112.91 15.012 114.943 15.6235 117.853 16.3825C121.234 17.2681 123.801 18.3434 125.556 19.6084C127.353 20.8735 128.573 22.3494 129.215 24.0361C129.857 25.6807 130.178 27.5572 130.178 29.6657C130.178 33.3765 128.723 36.3705 125.813 38.6476C122.903 40.8825 118.495 42 112.589 42Z" fill="white"/>
<path d="M134.651 41.3675V0.632529H146.719V14.991L159.236 0.632529H172.973L158.402 17.3313L174 41.3675H161.162L150.955 24.9217L146.719 29.6024V41.3675H134.651Z" fill="white"/>
</svg>
